<?xml version="1.0" encoding="utf-8"?>
<!-- Generator: Adobe Illustrator 23.0.5, SVG Export Plug-In . SVG Version: 6.00 Build 0)  -->
<svg version="1.1" id="Слой_1" xmlns="http://www.w3.org/2000/svg" xmlns:xlink="http://www.w3.org/1999/xlink" x="0px" y="0px"
	 viewBox="0 0 751.2 500" style="enable-background:new 0 0 751.2 500;" xml:space="preserve">
<style type="text/css">
	.st0{fill:#F7F7F7;}
	.st1{fill:url(#SVGID_1_);}
	.st2{fill:url(#SVGID_2_);}
	.st3{fill:url(#SVGID_3_);}
	.st4{fill:url(#SVGID_4_);}
	.st5{fill:url(#SVGID_5_);}
	.st6{fill:url(#SVGID_6_);}
	.st7{fill:url(#SVGID_7_);}
	.st8{fill:url(#SVGID_8_);}
	.st9{fill:url(#SVGID_9_);}
	.st10{fill:url(#SVGID_10_);}
	.st11{fill:url(#SVGID_11_);}
	.st12{fill:url(#SVGID_12_);}
	.st13{fill:url(#SVGID_13_);}
	.st14{fill:url(#SVGID_14_);}
	.st15{fill:url(#SVGID_15_);}
	.st16{fill:url(#SVGID_16_);}
	.st17{fill:url(#SVGID_17_);}
	.st18{fill:url(#SVGID_18_);}
	.st19{fill:url(#SVGID_19_);}
	.st20{fill:url(#SVGID_20_);}
	.st21{fill:url(#SVGID_21_);}
	.st22{fill:url(#SVGID_22_);}
	.st23{fill:url(#SVGID_23_);}
	.st24{fill:url(#SVGID_24_);}
	.st25{fill:url(#SVGID_25_);}
	.st26{fill:url(#SVGID_26_);}
	.st27{fill:url(#SVGID_27_);}
	.st28{fill:#FF7759;}
	.st29{fill:#FF6A59;}
	.st30{fill:url(#SVGID_28_);}
	.st31{fill:url(#SVGID_29_);}
	.st32{fill:url(#SVGID_30_);}
	.st33{opacity:0.95;fill:url(#SVGID_31_);}
	.st34{fill:#FF5458;}
	.st35{fill:url(#SVGID_32_);}
	.st36{fill:#38D2E0;}
	.st37{fill:#EEA886;}
	.st38{fill:#DB9C7C;}
	.st39{fill:#323657;}
	.st40{fill:#424773;}
	.st41{fill:#292C47;}
	.st42{fill:#E2D2CA;}
	.st43{fill:#EFAA88;}
	.st44{fill:#CF8C6C;}
	.st45{fill:#EB4747;}
	.st46{fill:#23344A;}
	.st47{fill:#9E4CC7;}
	.st48{fill:#3F74A0;}
	.st49{fill:#5B83C2;}
	.st50{fill:#AD3434;}
	.st51{fill:#B06E2A;}
	.st52{fill:#223247;}
	.st53{fill:#FAA146;}
	.st54{fill:#5B2C73;}
	.st55{fill:#F0DDD5;}
	.st56{fill:#A77860;}
	.st57{fill:#FF4D4D;}
	.st58{fill:#C43B3B;}
	.st59{fill:#EEECF0;}
	.st60{fill:#78C2FF;}
	.st61{fill:#E6E6E6;}
	.st62{fill:#FF4F3B;}
</style>
<g>
	<rect class="st0" width="751.2" height="500"/>
	<g>
		<linearGradient id="SVGID_1_" gradientUnits="userSpaceOnUse" x1="164.5717" y1="243.8208" x2="502.5631" y2="243.8208">
			<stop  offset="0" style="stop-color:#A246C4"/>
			<stop  offset="1" style="stop-color:#5EAFFF"/>
		</linearGradient>
		<rect x="185.1" y="98.3" class="st1" width="302.4" height="291.1"/>
		<g>
			<linearGradient id="SVGID_2_" gradientUnits="userSpaceOnUse" x1="505.4258" y1="270.9708" x2="563.1134" y2="270.9708">
				<stop  offset="5.181350e-03" style="stop-color:#595959"/>
				<stop  offset="1" style="stop-color:#FFFFFF"/>
			</linearGradient>
			<path class="st2" d="M559.8,283.1c0,0-16.4-45.1-54.4-33.3c0,0,32,5.1,48.5,32C570.3,308.6,559.8,283.1,559.8,283.1z"/>
			<linearGradient id="SVGID_3_" gradientUnits="userSpaceOnUse" x1="550.056" y1="270.9708" x2="607.7432" y2="270.9708">
				<stop  offset="5.181350e-03" style="stop-color:#595959"/>
				<stop  offset="1" style="stop-color:#FFFFFF"/>
			</linearGradient>
			<path class="st3" d="M553.4,283.1c0,0,16.4-45.1,54.4-33.3c0,0-32,5.1-48.5,32C542.9,308.6,553.4,283.1,553.4,283.1z"/>
			<linearGradient id="SVGID_4_" gradientUnits="userSpaceOnUse" x1="593.3555" y1="267.6804" x2="625.1856" y2="267.6804">
				<stop  offset="5.181350e-03" style="stop-color:#B3B3B3"/>
				<stop  offset="1" style="stop-color:#FFFFFF"/>
			</linearGradient>
			<path class="st4" d="M593.4,247.9c0,0,25.8-2.7,1,38l13.4,1.6C607.7,287.5,655.3,245.8,593.4,247.9z"/>
			<linearGradient id="SVGID_5_" gradientUnits="userSpaceOnUse" x1="547.7724" y1="280.6946" x2="564.3262" y2="280.6946">
				<stop  offset="5.181350e-03" style="stop-color:#B3B3B3"/>
				<stop  offset="1" style="stop-color:#FFFFFF"/>
			</linearGradient>
			<path class="st5" d="M564.3,283.2l-4.5,2l-1.2,0.5c0,0-17.8-5-7.8-9.3c2.4-1,4.4-1.2,6.1-0.8
				C562.3,276.9,564.3,283.2,564.3,283.2z"/>
			<linearGradient id="SVGID_6_" gradientUnits="userSpaceOnUse" x1="547.7724" y1="280.6946" x2="559.8155" y2="280.6946">
				<stop  offset="5.181350e-03" style="stop-color:#595959"/>
				<stop  offset="1" style="stop-color:#FFFFFF"/>
			</linearGradient>
			<path class="st6" d="M559.8,285.3l-1.2,0.5c0,0-17.8-5-7.8-9.3c2.4-1,4.4-1.2,6.1-0.8c0,0,0,0,0,0
				C557,275.8,549.1,278.4,559.8,285.3z"/>
			<linearGradient id="SVGID_7_" gradientUnits="userSpaceOnUse" x1="554.7026" y1="412.1607" x2="554.7026" y2="319.4216">
				<stop  offset="0" style="stop-color:#40D5E6"/>
				<stop  offset="1" style="stop-color:#5577FF"/>
			</linearGradient>
			<rect x="485.5" y="280.7" class="st7" width="138.3" height="108.7"/>
			<linearGradient id="SVGID_8_" gradientUnits="userSpaceOnUse" x1="480.6231" y1="297.0278" x2="628.7803" y2="297.0278">
				<stop  offset="0" style="stop-color:#40D5E6"/>
				<stop  offset="1" style="stop-color:#5577FF"/>
			</linearGradient>
			<rect x="480.6" y="280.7" class="st8" width="148.2" height="32.6"/>
			<linearGradient id="SVGID_9_" gradientUnits="userSpaceOnUse" x1="577.2145" y1="335.0479" x2="530.7054" y2="335.0479">
				<stop  offset="5.181350e-03" style="stop-color:#B3B3B3"/>
				<stop  offset="1" style="stop-color:#FFFFFF"/>
			</linearGradient>
			<rect x="539.8" y="280.7" class="st9" width="29.8" height="108.7"/>
		</g>
		<g>
			<linearGradient id="SVGID_10_" gradientUnits="userSpaceOnUse" x1="620.0832" y1="308.28" x2="643.0547" y2="308.28">
				<stop  offset="0" style="stop-color:#1F3073"/>
				<stop  offset="1" style="stop-color:#4E6CDE"/>
			</linearGradient>
			<path class="st10" d="M643.1,317c0,0-12-4.4-18.7-9.3c-2-1.5-3.5-3-4-4.4c-0.5-1.3-0.3-2.5,0.9-3.6c0,0,0.8-0.3,2.8,0.5
				c3,1.3,8.8,5.1,18.6,16.4C642.8,316.7,642.9,316.8,643.1,317z"/>
			<linearGradient id="SVGID_11_" gradientUnits="userSpaceOnUse" x1="608.8381" y1="311.0887" x2="643.0547" y2="311.0887">
				<stop  offset="0" style="stop-color:#7C3596"/>
				<stop  offset="1" style="stop-color:#3098FF"/>
			</linearGradient>
			<path class="st11" d="M643.1,317l-0.7,3.4c0,0-24,6-31.7-1.8c-0.1-0.1-0.2-0.2-0.3-0.3c-0.7-0.8-1.1-1.6-1.3-2.4
				c-2.2-7.4,12.2-16.1,12.2-16.1c-0.3,0.4-0.2,1,0.2,1.7c0.4,0.7,1.1,1.5,2,2.3C629.1,309,643.1,317,643.1,317z"/>
			<linearGradient id="SVGID_12_" gradientUnits="userSpaceOnUse" x1="605.1491" y1="319.6312" x2="626.6454" y2="298.6328">
				<stop  offset="0" style="stop-color:#354996"/>
				<stop  offset="1" style="stop-color:#4E6CDE"/>
			</linearGradient>
			<path class="st12" d="M623.4,303.6c0,0-4.9,2-6.4,5.2c-1.5,3.2-2.3,5.9-4.4,6.9c-1,0.5-1.7,1.4-2.2,2.4c-0.7-0.8-1.1-1.6-1.3-2.4
				c0.2-1.3,0.6-2.7,1.7-3.9c3.1-3.6,6.2-6.3,6.6-7.6c0.3-1,2.9-2.3,4.1-2.9C621.8,302,622.5,302.8,623.4,303.6L623.4,303.6z"/>
			<linearGradient id="SVGID_13_" gradientUnits="userSpaceOnUse" x1="650.377" y1="308.28" x2="673.3502" y2="308.28">
				<stop  offset="0" style="stop-color:#1F3073"/>
				<stop  offset="1" style="stop-color:#4E6CDE"/>
			</linearGradient>
			<path class="st13" d="M650.4,317c0,0,12-4.4,18.7-9.3c2-1.5,3.5-3,4-4.4c0.5-1.3,0.3-2.5-0.9-3.6c0,0-0.8-0.3-2.8,0.5
				c-3,1.3-8.8,5.1-18.6,16.4C650.6,316.7,650.5,316.8,650.4,317z"/>
			<linearGradient id="SVGID_14_" gradientUnits="userSpaceOnUse" x1="650.377" y1="311.0887" x2="684.5952" y2="311.0887">
				<stop  offset="0" style="stop-color:#7C3596"/>
				<stop  offset="1" style="stop-color:#3098FF"/>
			</linearGradient>
			<path class="st14" d="M650.4,317l0.7,3.4c0,0,24,6,31.7-1.8c0.1-0.1,0.2-0.2,0.3-0.3c0.7-0.8,1.1-1.6,1.3-2.4
				c2.2-7.4-12.2-16.1-12.2-16.1c0.3,0.4,0.2,1-0.2,1.7c-0.4,0.7-1.1,1.5-2,2.3C664.4,309,650.4,317,650.4,317z"/>
			<linearGradient id="SVGID_15_" gradientUnits="userSpaceOnUse" x1="646.6685" y1="319.1595" x2="646.1703" y2="313.0721">
				<stop  offset="0" style="stop-color:#354996"/>
				<stop  offset="1" style="stop-color:#4E6CDE"/>
			</linearGradient>
			<path class="st15" d="M642.1,317c0,0,1.1-1.3,1.9-0.8c0.8,0.5,1.9-1,3.1-0.4c1.2,0.6,1.3-1,2.8-0.1c1.5,0.9,2.3,3.8,1.2,5.2
				c-1.1,1.5-1.7-0.3-2.2,0c-0.5,0.3-1.5,1.6-3.2,0.6c-1.7-1-4.1,0.9-3.9-0.3C642,319.9,641.4,319.4,642.1,317z"/>
			<linearGradient id="SVGID_16_" gradientUnits="userSpaceOnUse" x1="646.7158" y1="375.5595" x2="646.7158" y2="325.5655">
				<stop  offset="0" style="stop-color:#FFC05C"/>
				<stop  offset="1" style="stop-color:#FF3857"/>
			</linearGradient>
			<rect x="602.7" y="320.2" class="st16" width="88.1" height="69.2"/>
			<linearGradient id="SVGID_17_" gradientUnits="userSpaceOnUse" x1="646.7159" y1="348.3343" x2="646.7159" y2="293.2053">
				<stop  offset="0" style="stop-color:#FFC05C"/>
				<stop  offset="1" style="stop-color:#FF3857"/>
			</linearGradient>
			<rect x="599.6" y="320.2" class="st17" width="94.3" height="24"/>
			<linearGradient id="SVGID_18_" gradientUnits="userSpaceOnUse" x1="646.7158" y1="391.6068" x2="646.7158" y2="295.9864">
				<stop  offset="0" style="stop-color:#7C3596"/>
				<stop  offset="1" style="stop-color:#3098FF"/>
			</linearGradient>
			<rect x="637.2" y="320.2" class="st18" width="18.9" height="69.2"/>
		</g>
		<g>
			<linearGradient id="SVGID_19_" gradientUnits="userSpaceOnUse" x1="91.4108" y1="150.7431" x2="178.3202" y2="150.7431">
				<stop  offset="0" style="stop-color:#40D5E6"/>
				<stop  offset="1" style="stop-color:#5577FF"/>
			</linearGradient>
			<path class="st19" d="M134,200.1c15.2,10.6,30.2,17.7,38.2,13.4c0.5-0.3,0.9-0.6,1.3-0.9c4.6-3.6,6.2-12.1,3.1-27.5
				c-8.2-40.9-33.9-47.4-57.9-59.7c-23.7-12.1-14.7-38-14.4-38.6C71.6,144.8,108.2,182,134,200.1z"/>
			<g>
				
					<linearGradient id="SVGID_20_" gradientUnits="userSpaceOnUse" x1="-5804.1274" y1="2297.0308" x2="-5804.1274" y2="2213.063" gradientTransform="matrix(-0.7847 0.6199 0.6199 0.7847 -5797.5215 2018.7274)">
					<stop  offset="0" style="stop-color:#40D5E6"/>
					<stop  offset="1" style="stop-color:#5577FF"/>
				</linearGradient>
				<path class="st20" d="M172.3,213.5c0.5-0.3,0.9-0.6,1.3-0.9c-3-8-9.7-23.3-18.8-31.7c-4.3-3.9-9.3-7.5-14.6-11.2
					c-10-7.1-20.3-14.5-27.3-25.3l-1.3,0.8c7.2,11.1,17.6,18.5,27.7,25.7c5.2,3.7,10.2,7.3,14.4,11.1
					C162.6,190.2,169.3,205.7,172.3,213.5z"/>
			</g>
		</g>
		<g>
			<linearGradient id="SVGID_21_" gradientUnits="userSpaceOnUse" x1="57.3067" y1="223.2155" x2="208.1348" y2="223.2155">
				<stop  offset="0" style="stop-color:#40D5E6"/>
				<stop  offset="1" style="stop-color:#5577FF"/>
			</linearGradient>
			<path class="st21" d="M89.3,241.9c21,3.4,34.6-13.2,58.8,17.4c20.9,26.4,50.5-2.8,58.1-11.3c1.2-1.3,1.9-2.2,1.9-2.2
				s-0.5,0.1-1.3,0.3c-5.2,1.1-25.1,4.4-29.8-10.8c-5.4-17.5-20.9-41.2-41.3-34.9c-20.4,6.3-24.8-9.1-39.9-20.7
				c-15.1-11.6-38.5,9.8-38.5,9.8S68.3,238.4,89.3,241.9z"/>
			<g>
				
					<linearGradient id="SVGID_22_" gradientUnits="userSpaceOnUse" x1="-3089.3499" y1="2010.2576" x2="-3089.3499" y2="1906.775" gradientTransform="matrix(-0.5585 0.8295 0.8295 0.5585 -3192.7097 1700.892)">
					<stop  offset="0" style="stop-color:#40D5E6"/>
					<stop  offset="1" style="stop-color:#5577FF"/>
				</linearGradient>
				<path class="st22" d="M155.2,236.1c4,6.9,8.1,14.1,17.5,18.1c12.8,5.4,25.8-0.9,33.6-6.1c1.2-1.3,1.9-2.2,1.9-2.2
					s-0.5,0.1-1.3,0.3c-7.3,5.2-20.7,12.4-33.7,6.9c-9-3.8-13-10.8-16.9-17.6c-4.5-7.8-9.2-15.9-21.4-18.7
					c-5.4-1.2-10.2-0.8-14.9-0.5c-6.7,0.6-13,1.1-19.9-3.7l-0.7,1c7.3,5,13.8,4.5,20.7,3.9c4.6-0.4,9.3-0.8,14.5,0.4
					C146.3,220.6,150.6,228.1,155.2,236.1z"/>
			</g>
		</g>
		<g>
			
				<linearGradient id="SVGID_23_" gradientUnits="userSpaceOnUse" x1="3930.7896" y1="-5628.7207" x2="3975.5005" y2="-5692.9102" gradientTransform="matrix(0.7071 0.7071 -0.7071 0.7071 -6313.8125 1340.6879)">
				<stop  offset="0" style="stop-color:#40D5E6"/>
				<stop  offset="1" style="stop-color:#5577FF"/>
			</linearGradient>
			<path class="st23" d="M481.2,144.1c2.3,41.6,35.2,39.5,37.8,39.3c0.1,0,0.2,0,0.2,0c-0.7-0.8-1.4-1.7-2-2.5
				c-16.5-22.9,2.3-54.2,2-77.2c-0.3-23.9-21.6-29.1-21.6-29.1C513.2,87.6,478.8,100.8,481.2,144.1z"/>
			<g>
				
					<linearGradient id="SVGID_24_" gradientUnits="userSpaceOnUse" x1="-11908.5957" y1="-636.6729" x2="-11863.8857" y2="-700.8597" gradientTransform="matrix(-0.9932 -0.1166 -0.1166 0.9932 -11788.2588 -1350.6147)">
					<stop  offset="0" style="stop-color:#40D5E6"/>
					<stop  offset="1" style="stop-color:#5577FF"/>
				</linearGradient>
				<path class="st24" d="M500.5,165c4.5,8,11.5,14,18.5,18.3c0.1,0,0.2,0,0.2,0c-0.7-0.8-1.4-1.7-2-2.5c-6-4.1-11.8-9.5-15.7-16.3
					c-5-8.8-5.8-18.6-2.5-29c10.4-33,4.5-38.3,4.3-38.5l-0.4,0.5l-0.4,0.4c0,0,0,0,0,0c0.3,0.3,5.2,6.2-4.6,37.3
					C494.5,145.8,495.4,155.9,500.5,165z"/>
			</g>
		</g>
		<g>
			<linearGradient id="SVGID_25_" gradientUnits="userSpaceOnUse" x1="522.1356" y1="212.1759" x2="569.3134" y2="17.1664">
				<stop  offset="0" style="stop-color:#40D5E6"/>
				<stop  offset="1" style="stop-color:#5577FF"/>
			</linearGradient>
			<path class="st25" d="M547.6,185.6c-13.1,16.2-27,28.5-37,26.3c-0.6-0.1-1.2-0.3-1.7-0.5c-6.1-2.5-10.4-11.1-11.9-28.6
				c-3.9-46.5,21.7-61.5,43.8-82.2c21.8-20.4,14.4-45.4,13.9-46C608,106.8,569.8,158.2,547.6,185.6z"/>
			<g>
				<linearGradient id="SVGID_26_" gradientUnits="userSpaceOnUse" x1="495.4205" y1="201.9019" x2="581.6928" y2="115.6295">
					<stop  offset="0" style="stop-color:#40D5E6"/>
					<stop  offset="1" style="stop-color:#5577FF"/>
				</linearGradient>
				<path class="st26" d="M510.6,211.9c-0.6-0.1-1.2-0.3-1.7-0.5c0.8-9.5,3.2-28.1,10.4-39.9c3.4-5.6,7.7-10.9,12.2-16.6
					c8.5-10.7,17.4-21.9,21.5-35.7l1.7,0.5c-4.2,14.2-13.2,25.4-21.8,36.3c-4.5,5.6-8.7,11-12.1,16.4
					C513.8,183.8,511.4,202.6,510.6,211.9z"/>
			</g>
		</g>
		<linearGradient id="SVGID_27_" gradientUnits="userSpaceOnUse" x1="144.5684" y1="259.0459" x2="528.0176" y2="259.0459">
			<stop  offset="0" style="stop-color:#FFC05C"/>
			<stop  offset="1" style="stop-color:#FF3857"/>
		</linearGradient>
		<path class="st27" d="M508.5,378.1H164.1c-10.8,0-19.5-8.7-19.5-19.5v-199c0-10.8,8.7-19.5,19.5-19.5h344.4
			c10.8,0,19.5,8.7,19.5,19.5v199C528,369.3,519.3,378.1,508.5,378.1z"/>
		<g>
			<path class="st28" d="M462.5,222.1c-17.4,0-31.6-14.2-31.6-31.6c0-17.4,14.2-31.6,31.6-31.6c17.4,0,31.6,14.2,31.6,31.6
				C494,207.9,479.9,222.1,462.5,222.1z M462.5,163.6c-14.8,0-26.9,12.1-26.9,26.9c0,14.8,12.1,26.9,26.9,26.9
				c14.8,0,26.9-12.1,26.9-26.9C489.4,175.6,477.3,163.6,462.5,163.6z"/>
		</g>
		<g>
			<path class="st29" d="M187.5,323.6c-1.7,0-3.3-0.3-4.8-0.9c-1.5-0.6-2.8-1.4-3.9-2.4c-1.1-1-2-2.2-2.6-3.6c-0.6-1.4-1-2.8-1-4.4
				c0-1.5,0.3-3,1-4.4c0.6-1.4,1.5-2.6,2.6-3.6c1.1-1,2.4-1.8,3.9-2.4c1.5-0.6,3.1-0.9,4.8-0.9c1.7,0,3.3,0.3,4.8,0.9
				c1.5,0.6,2.8,1.4,3.9,2.4c1.1,1,2,2.2,2.6,3.6c0.6,1.4,1,2.8,1,4.4c0,1.6-0.3,3.1-1,4.4c-0.6,1.4-1.5,2.5-2.6,3.6
				c-1.1,1-2.4,1.8-3.9,2.4C190.8,323.3,189.2,323.6,187.5,323.6z M179.4,351.1l20.9-24.4l19.3-25.4l4.5,4l-20.3,24l-20,25.8
				L179.4,351.1z M187.5,318.6c0.7,0,1.4-0.2,2-0.5c0.6-0.3,1.2-0.8,1.7-1.4c0.5-0.6,0.9-1.2,1.2-2c0.3-0.8,0.4-1.6,0.4-2.4
				c0-1.7-0.5-3.2-1.6-4.4c-1-1.2-2.3-1.8-3.7-1.8c-0.7,0-1.4,0.2-2,0.5c-0.6,0.3-1.2,0.8-1.7,1.4c-0.5,0.6-0.9,1.2-1.2,2
				c-0.3,0.7-0.4,1.5-0.4,2.4c0,1.7,0.5,3.2,1.6,4.5C184.8,318,186.1,318.6,187.5,318.6z M216.2,355.3c-1.7,0-3.3-0.3-4.8-0.9
				c-1.5-0.6-2.8-1.4-3.9-2.4c-1.1-1-2-2.2-2.6-3.5c-0.6-1.4-1-2.8-1-4.4c0-1.6,0.3-3.1,1-4.4c0.6-1.4,1.5-2.5,2.6-3.6
				c1.1-1,2.4-1.8,3.9-2.4c1.5-0.6,3.1-0.9,4.8-0.9c1.7,0,3.3,0.3,4.8,0.9c1.5,0.6,2.8,1.4,3.9,2.4c1.1,1,2,2.2,2.6,3.6
				c0.6,1.4,0.9,2.8,0.9,4.4c0,1.6-0.3,3.1-0.9,4.4c-0.6,1.4-1.5,2.5-2.6,3.5c-1.1,1-2.4,1.8-3.9,2.4
				C219.5,355,217.9,355.3,216.2,355.3z M216.2,350.3c0.7,0,1.4-0.2,2-0.5c0.6-0.3,1.2-0.8,1.7-1.4c0.5-0.6,0.9-1.2,1.2-2
				c0.3-0.7,0.4-1.5,0.4-2.4c0-0.9-0.1-1.7-0.4-2.5c-0.3-0.8-0.7-1.4-1.2-2c-0.5-0.6-1-1-1.7-1.3c-0.6-0.3-1.3-0.5-2-0.5
				c-0.7,0-1.4,0.2-2,0.5c-0.6,0.3-1.2,0.8-1.7,1.4c-0.5,0.6-0.9,1.2-1.2,2c-0.3,0.8-0.4,1.6-0.4,2.4c0,1.7,0.5,3.2,1.6,4.4
				C213.5,349.7,214.7,350.3,216.2,350.3z"/>
		</g>
		<linearGradient id="SVGID_28_" gradientUnits="userSpaceOnUse" x1="88.7941" y1="178.149" x2="413.5567" y2="178.149">
			<stop  offset="0" style="stop-color:#FFC05C"/>
			<stop  offset="1" style="stop-color:#FF3857"/>
		</linearGradient>
		<rect x="167" y="170.9" class="st30" width="203.4" height="14.6"/>
		<linearGradient id="SVGID_29_" gradientUnits="userSpaceOnUse" x1="88.7941" y1="160.7881" x2="413.5567" y2="160.7881">
			<stop  offset="0" style="stop-color:#FFC05C"/>
			<stop  offset="1" style="stop-color:#FF3857"/>
		</linearGradient>
		<rect x="167" y="158.9" class="st31" width="203.4" height="3.8"/>
		<linearGradient id="SVGID_30_" gradientUnits="userSpaceOnUse" x1="88.7942" y1="200.7539" x2="413.5571" y2="200.7539">
			<stop  offset="0" style="stop-color:#FFC05C"/>
			<stop  offset="1" style="stop-color:#FF3857"/>
		</linearGradient>
		<rect x="167" y="193.5" class="st32" width="104" height="14.6"/>
		<linearGradient id="SVGID_31_" gradientUnits="userSpaceOnUse" x1="484.3257" y1="300.2056" x2="201.4536" y2="300.2056">
			<stop  offset="0" style="stop-color:#EDF4FF"/>
			<stop  offset="1" style="stop-color:#EDFFFE"/>
		</linearGradient>
		<path class="st33" d="M401,399.7H271.6c-8.2,0-14.9-6.7-14.9-14.9V215.6c0-8.2,6.7-14.9,14.9-14.9H401c8.2,0,14.9,6.7,14.9,14.9
			v169.1C415.9,393,409.2,399.7,401,399.7z"/>
		<g>
			<path class="st34" d="M376.6,365.3c-9.7,0-17.5-7.9-17.5-17.5c0-9.7,7.9-17.5,17.5-17.5c9.7,0,17.5,7.9,17.5,17.5
				C394.1,357.4,386.3,365.3,376.6,365.3z M376.6,333.6c-7.8,0-14.1,6.3-14.1,14.1c0,7.8,6.3,14.1,14.1,14.1
				c7.8,0,14.1-6.3,14.1-14.1C390.7,340,384.4,333.6,376.6,333.6z"/>
		</g>
		<g>
			<polygon class="st34" points="375.5,354.7 367.5,346.7 369.9,344.3 375.5,349.9 383.3,342.1 385.7,344.5 			"/>
		</g>
		<g>
			<rect x="425.3" y="340" class="st28" width="5.1" height="23.5"/>
			<rect x="432.8" y="340" class="st28" width="2.5" height="23.5"/>
			<rect x="437.8" y="340" class="st28" width="4.6" height="23.5"/>
			<rect x="445" y="340" class="st28" width="2.8" height="23.5"/>
			<rect x="449.7" y="340.1" class="st28" width="1.3" height="23.5"/>
			<rect x="452.9" y="340" class="st28" width="4.4" height="23.5"/>
			<rect x="459.1" y="340" class="st28" width="3.4" height="23.5"/>
			<rect x="464.1" y="340" class="st28" width="1.7" height="23.5"/>
			<rect x="467.7" y="340" class="st28" width="4.8" height="23.5"/>
			<rect x="473.7" y="340" class="st28" width="3.6" height="23.5"/>
			<rect x="478.8" y="340" class="st28" width="1.8" height="23.5"/>
			<rect x="482" y="340" class="st28" width="2.5" height="23.5"/>
			<rect x="486.2" y="340.1" class="st28" width="7.8" height="23.5"/>
		</g>
		<linearGradient id="SVGID_32_" gradientUnits="userSpaceOnUse" x1="336.294" y1="128.097" x2="336.294" y2="79.5698">
			<stop  offset="0" style="stop-color:#7C3596"/>
			<stop  offset="1" style="stop-color:#3098FF"/>
		</linearGradient>
		<path class="st35" d="M175.9,79.6v43.1c0,0,8.6,12.2,18.9,0h18.9c0,0,8.6,12.2,18.9,0h18.9c0,0,8.6,12.2,18.9,0h18.9
			c0,0,8.6,12.2,18.9,0h18.9c0,0,8.6,12.2,18.9,0h18.9c0,0,8.6,12.2,18.9,0h18.9c0,0,8.6,12.2,18.9,0H440c0,0,8.6,12.2,18.9,0h18.9
			c0,0,8.6,12.2,18.9,0V79.6H175.9z"/>
		<g>
			<path class="st36" d="M194.8,122.7c0,0,8.6,12.2,18.9,0V79.6h-18.9V122.7z"/>
			<path class="st36" d="M232.5,122.7c0,0,8.6,12.2,18.9,0V79.6h-18.9V122.7z"/>
			<path class="st36" d="M270.3,122.7c0,0,8.6,12.2,18.9,0V79.6h-18.9V122.7z"/>
			<path class="st36" d="M308,122.7c0,0,8.6,12.2,18.9,0V79.6H308V122.7z"/>
			<path class="st36" d="M345.7,122.7c0,0,8.6,12.2,18.9,0V79.6h-18.9V122.7z"/>
			<path class="st36" d="M383.5,122.7c0,0,8.6,12.2,18.9,0V79.6h-18.9V122.7z"/>
			<path class="st36" d="M421.2,122.7c0,0,8.6,12.2,18.9,0V79.6h-18.9V122.7z"/>
			<path class="st36" d="M458.9,79.6v43.1c0,0,8.6,12.2,18.9,0V79.6H458.9z"/>
		</g>
		<path class="st34" d="M366,230.3l-2.7,11.7h-68.1v2.7l9.8,45.5v1.3h5.6l1.4,5.9h2c-1.9,0.7-3.3,2.5-3.3,4.7c0,2.7,2.2,5,5,5
			c2.7,0,5-2.2,5-5c0-2.1-1.4-4-3.3-4.7h28c-1.9,0.7-3.3,2.5-3.3,4.7c0,2.7,2.2,5,5,5c2.7,0,5-2.2,5-5c0-2.1-1.4-4-3.3-4.7h2.2v-2.1
			h-37.4l-0.9-3.8H355v-1.3l8-37.2l4.7-20.5h28.6v-2.1H366z M318.6,302.1c0,1.6-1.3,2.9-2.9,2.9c-1.6,0-2.9-1.3-2.9-2.9
			c0-1.6,1.3-2.9,2.9-2.9C317.3,299.2,318.6,300.5,318.6,302.1z M350,302.1c0,1.6-1.3,2.9-2.9,2.9c-1.6,0-2.9-1.3-2.9-2.9
			c0-1.6,1.3-2.9,2.9-2.9C348.7,299.2,350,300.5,350,302.1z M321.1,260.3h17.8l-0.9,13h-16L321.1,260.3z M319.7,273.3h-15.9l-2.8-13
			h17.8L319.7,273.3z M339.1,257.7h-18.2l-0.9-13H340L339.1,257.7z M342.4,244.7h20l-2.8,13h-18.2L342.4,244.7z M337.8,275.9
			l-0.9,13h-13.7l-0.9-13H337.8z M340.1,275.9h15.5l-2.8,13h-13.7L340.1,275.9z M356.2,273.3h-15.9l0.9-13H359l-2.7,12.7
			L356.2,273.3z M317.6,244.7l0.9,13h-18.2l-2.8-13H317.6z M304.3,275.9h15.5l0.9,13h-13.7L304.3,275.9z"/>
		<rect x="328.3" y="377" class="st34" width="16" height="2"/>
		<rect x="328.3" y="212.1" class="st34" width="16" height="2"/>
		<rect x="280.3" y="338.8" class="st34" width="39.4" height="5.3"/>
		<rect x="280.3" y="351.4" class="st34" width="58.4" height="5.3"/>
		<rect x="432.8" y="253.3" class="st29" width="61.2" height="20.1"/>
		<rect x="432.8" y="279" class="st29" width="61.2" height="12"/>
		<g>
			<g>
				<g>
					<g>
						<path class="st37" d="M460.6,343.8c0,0-0.8,1.3-0.9,2.4c-0.1,0.8-0.8,2.1-1.1,2.8c-0.3,0.7-1.3,3.9-1.3,4.7
							c0,0.3,0.7,2.5,0.6,3.1c-0.1,0.7-0.5,2,0.1,2.1c0.6,0.1,1.3-1,1.3-1s-0.1,0.6,0.5,0.9c1,0.5,1.5,0.1,1.5,0.1s0.4,0.7,0.8,0.8
							c1,0.2,1.5-0.2,1.5-0.2s0.5,0.4,1.2,0.4c0.9,0,1.3-0.8,1.3-0.8s1.1,0.2,1.5-0.3c0.3-0.5,0.3-1.1,0.4-1.6c0.1-0.5,0-4.9-1.5-8
							c-1.5-3.2,0.4-6.2,0.4-6.2L460.6,343.8z"/>
					</g>
				</g>
			</g>
			<g>
				<g>
					<path class="st38" d="M459.1,357.6c0,0-0.1-3.9,0.9-4.8c1-0.8,1.2,0.6,1.2,0.6s-0.1-1.4,1-1.6c1.1-0.2,1.2,1.5,1.2,1.5
						s0.2-1.1,1.4-0.9c1.2,0.2,0.9,1.6,0.9,1.6s1.1-1.4,1.9-0.1c1.2,2.2,0,4.8,0,4.8s-0.4,0.6-1.5,0.3c0,0-0.8,1.5-2.5,0.4
						c0,0-1.7,1-2.4-0.6C461.3,358.9,459.4,359.8,459.1,357.6z"/>
				</g>
			</g>
			<path class="st39" d="M447.2,287.1c0,0,6.7,22.5,9,30.7c0.7,2.6,2.4,27.4,2.7,28.4c0.3,1,8.9,2.4,8.9,2.4s-1-31-1.1-32.7
				c-0.1-1.7-9.4-36.4-12.1-37.6c-2-0.9-3.1-0.2-5.7,1.7C445.3,282.7,447.2,287.1,447.2,287.1z"/>
			<g>
				<g>
					<path class="st40" d="M452.7,440.5c0,0,0.6,4.3,0.7,4.9c0.1,0.6,6.8-0.4,6.8-0.4l0.5-5.1C460.8,439.9,453.5,439.9,452.7,440.5z
						"/>
				</g>
			</g>
			<g>
				<g>
					<path class="st41" d="M453.3,444.8c0,0-2.1,2.6-4.2,3.7c-2.1,1.1-5.3,1.6-6.5,2.7c-0.9,0.8-3.2,4.4,5.4,4.4
						c8.6-0.1,12.7,0.5,13.7-0.9c0.9-1.4-1.3-10.2-1.3-10.2S458.2,445.3,453.3,444.8z"/>
				</g>
			</g>
			<g>
				<g>
					<path class="st40" d="M404.3,440.5c0,0,0.6,4.3,0.7,4.9c0.1,0.6,6.8-0.4,6.8-0.4l0.5-5.1C412.3,439.9,405.1,439.9,404.3,440.5z
						"/>
				</g>
			</g>
			<g>
				<g>
					<path class="st41" d="M404.9,444.8c0,0-2.1,2.6-4.2,3.7c-2.1,1.1-9.7,2-10.9,3.2c-0.9,0.8-2.4,4.2,9.7,3.9
						c8.6-0.2,12.7,0.5,13.7-0.9c0.9-1.4-1.3-10.2-1.3-10.2S409.9,445.3,404.9,444.8z"/>
				</g>
			</g>
			<g>
				<g>
					<path class="st41" d="M447.1,330.9c0,0,6.3,10.1,5.9,19.2c-0.5,9.1,2.3,19.1,3.3,28.6c1.1,10.6,5.4,35.8,5.6,41.4
						c0.2,5.7-0.7,23.8-0.7,23.8l-8.7,0.2c0,0-7.3-43.9-9.2-48.4c-1.9-4.5-11.3-36.5-11.6-40C431.3,352.1,447.1,330.9,447.1,330.9z"
						/>
				</g>
			</g>
			<g>
				<g>
					<path class="st41" d="M413.7,332.3c0,0-4.8,25-5.4,30.6c-0.6,5.6-1.1,27-1.4,30.5c-0.3,3.5-3,45.5-3.8,50.8h11.1
						c0,0,8.5-30.6,8.5-45.1c0-14.5,6.6-31.5,10.9-41.1c4.3-9.6,14-9.8,16.6-27.5C450.3,330.4,417.2,326.6,413.7,332.3z"/>
				</g>
			</g>
			<g>
				<g>
					<path class="st37" d="M436.5,246.1c0,0-8.5-3.2-12.5,3.3c-3.9,6.5-3.6,19.5,0.7,21.1c4.3,1.6,10.7,0.8,12.9-3.3
						c2.2-4.1,4.2-9.9,4.1-13.8C441.7,249.4,438.7,247.2,436.5,246.1z"/>
				</g>
			</g>
			<g>
				<g>
					<path class="st37" d="M425.7,270.8c0,0,0.4,2.3-0.2,3.4c-0.6,1.1,11,1.2,11,1.2s0.9-6.2,2.7-11.4
						C441,258.8,425.7,270.8,425.7,270.8z"/>
				</g>
			</g>
			<g>
				<g>
					<path class="st39" d="M439.3,264c0,0-0.8,1.3-4.1,0.8c-3.3-0.5-7.3-4.9-8.6-5.4c-1.4-0.5-1.4-1.3-1.4-1.3l-0.9,1.3l-1.5,0.1
						c0,0,1.3-3.9-0.7-5.5c-2-1.6,2.1-12.6,12.6-8.9c0,0,8.1,2.2,7.8,6.8C442.2,256.5,441.1,261.7,439.3,264z"/>
				</g>
			</g>
			<g>
				<g>
					<path class="st42" d="M424.8,274.1c0,0,0-2.2,1-2.4c1-0.2,10.8-1.2,12-0.7v2.5C437.8,273.5,435.5,275,424.8,274.1z"/>
				</g>
			</g>
			<g>
				<g>
					<path class="st37" d="M425.4,256.5c0.2-0.8,2.1-3,2.9-0.6c0.8,2.4-1.1,5.5-2.2,5.3C425,260.9,424.9,258.5,425.4,256.5z"/>
				</g>
			</g>
			<g>
				<g>
					<path class="st39" d="M385.7,299.7C385.7,299.7,385.7,299.7,385.7,299.7C385.6,299.7,385.6,299.7,385.7,299.7z"/>
				</g>
			</g>
			<g>
				<g>
					<path class="st39" d="M438.9,246.9c0,0,10.9,0.9,0.3,17.1L438.9,246.9z"/>
				</g>
			</g>
			<path class="st43" d="M364.9,250.2c0.3-1.1,1.5-1.4,1.5-1.4c0.5-0.7,1.7-1.1,1.7-1.1c0-0.1,0-0.1,0.1-0.1c-0.8-0.8-3-2.4-3.1-2.7
				c-0.2-0.4-0.1-0.4,0.3-0.6c0.4-0.2,4,2.2,5.2,3c0.3,0.2,0.5,0.4,0.6,0.4c0.3,0.3,1,0.5,1.6,1.1c0.1,0.1,0.1,0.1,0.2,0.2
				c0.6,0.8,2,7,2,7l-2.5,1.1l-2.5,2.1c0,0-2.9-2.4-3.6-3.1c-0.7-0.7-1.1-1.6-1.3-2c0-0.1-0.1-0.2-0.2-0.4c-0.3-0.5-0.8-1.1-0.8-1.1
				c-0.3-0.4-0.4-1.2-0.4-1.2C363.7,250.6,364.9,250.2,364.9,250.2z"/>
			<g>
				<g>
					<path class="st39" d="M408.5,277.3c6.8-0.9,16.3-3.3,16.3-3.3l13.1-0.5c0,0,12,2.6,16.7,4.8c0.4,0.2,0.4,10.7,1.7,13.4
						l-3.9,8.3c0,0-2.3,16.4-2.7,23.6c-0.2,3.3,4.7,31.3,4.7,31.3s-5.2,1.5-14.1,2.5c-8.9,1-31.2-0.4-31.3-1.4
						c-0.1-1.1,4.3-39.2,4.5-41.2c0.3-3-1-19.1-1-19.1c-2.1-1.6-20.1-10-25.1-14.4c-1.3-1.2-6.9-6.6-8.5-8.5
						c-5.6-6.6-10.2-12.3-10.8-13.5c-0.6-0.7,6.1-4.4,6.7-4.6c0.5-0.2,8.1,9.6,11,12.8c1.3,1.4,6.7,5.3,6.7,5.3
						S404.3,277.6,408.5,277.3z"/>
				</g>
			</g>
		</g>
		<g>
			<g>
				<path class="st37" d="M197,272.2c0,0,1.6-2.9,1.8-3.4c0.3-0.4,1.5-1.1,3.1-1.7c1.5-0.6,3.9-0.7,4.1-0.5c0.2,0.2,0.5,0.2,0.8,0.9
					c0.2,0.7,0,1.4,0,1.4s0.6,0.7,0.4,1.6c0,0,0.7,0.6,0.2,1.6c0,0,0.7,0.7,0.3,1.3c0,0-1.3,0.6-1.7,1c-0.4,0.4-3.2,1.5-6,2.2
					C200,276.5,197.1,276.3,197,272.2z"/>
			</g>
			<g>
				<path class="st44" d="M201.6,271c0,0-0.2,1.7-0.4,2.1c-0.3,0.4,3.2,1.9,3.2,1.9S203.6,271.2,201.6,271z"/>
			</g>
			<g>
				<g>
					<polygon class="st45" points="241.5,313.8 199.8,319.2 192.7,281.1 236.3,273.6 					"/>
				</g>
			</g>
			<g>
				<g>
					<path class="st46" d="M220.4,277.4c-0.1-4-1.6-8.8-4.7-11.4c-2.3-1.9-5.1-2.3-8-1.8c-6.8,1.1-7.2,8.2-5.8,13.1L220.4,277.4z
						 M202.5,276.4c-1.2-5.3-0.1-10.5,5.3-11.4c2.6-0.4,5.2-0.1,7.3,1.6c2.7,2.2,4,6.3,4.3,9.8L202.5,276.4z"/>
				</g>
			</g>
			<g>
				<g>
					<path class="st46" d="M222,277.4c-0.1-4-1.9-8.8-5-11.4c-2.3-1.9-5.1-2.3-8-1.8c-6.8,1.1-6,8.2-4.6,13.1L222,277.4z
						 M205.1,276.4c-1.2-5.3-1.4-10.5,4.1-11.4c2.6-0.4,5.2-0.1,7.3,1.6c2.7,2.2,4.6,6.3,4.9,9.8L205.1,276.4z"/>
				</g>
			</g>
			<g>
				<g>
					<polygon class="st47" points="235,319.9 186.4,316.2 190.3,276.8 235.5,275.5 					"/>
				</g>
			</g>
			<g>
				<path class="st37" d="M99.2,298.1c0,0,0.4-3.3,0.4-3.8c0-0.5-0.6-1.8-1.6-3.1c-0.9-1.4-2.8-2.8-3-2.8c-0.3,0-0.6-0.1-1.2,0.3
					c-0.6,0.4-0.8,1.1-0.8,1.1s-1,0.2-1.3,1.1c0,0-0.9,0.2-1,1.2c0,0-0.9,0.2-1,0.9c0,0,0.7,1.2,0.8,1.8c0.1,0.5,1.7,3,3.6,5.2
					C94.2,300,96.7,301.4,99.2,298.1z"/>
			</g>
			<g>
				<g>
					<path class="st46" d="M104.5,302.7c0.4-3.1,0-7-2-9.4c-1.4-1.6-3.2-2.2-5.2-2.3c-2.8-0.1-5.4,0.7-7.3,2.8
						c-2.6,2.8-3.3,7.6-2.9,11.4L104.5,302.7z M87.8,304.2c-0.2-3.3,0.5-7.3,2.8-9.8c1.7-1.9,4.1-2.6,6.7-2.5c1.8,0,3.4,0.6,4.6,2
						c1.7,2,2.2,5.4,1.9,8.1L87.8,304.2z"/>
				</g>
			</g>
			<g>
				<g>
					<polygon class="st48" points="68.4,347.6 71.6,306.6 78.7,347.1 73.8,346.2 					"/>
				</g>
			</g>
			<g>
				<g>
					<polygon class="st49" points="78.7,347.1 121,339.6 114.1,300.2 71.5,306.3 					"/>
				</g>
			</g>
			<g>
				<g>
					<path class="st46" d="M124,311.5c0.7,2,0,4.6-0.8,6.5l0.8,0.1c0.9-2,1.5-4.6,0.8-6.7L124,311.5z"/>
				</g>
			</g>
			<g>
				<g>
					<polygon class="st45" points="92.8,348.6 127.5,353.2 133.4,321.4 97.1,315.2 					"/>
				</g>
			</g>
			<g>
				<g>
					<polygon class="st50" points="85.7,347.6 97.1,315.2 92.8,348.4 89.1,347.1 					"/>
				</g>
			</g>
			<g>
				<g>
					<path class="st46" d="M124.7,310.6c1.2,2.4,0.6,5.8,0.4,6.7l0.7,0.3c0.2-1,1.1-5-0.8-7.9L124.7,310.6z"/>
				</g>
			</g>
			<g>
				<g>
					<polygon class="st51" points="89.1,352.5 96.8,317.4 98.1,353.5 93.9,351.9 					"/>
				</g>
			</g>
			<g>
				<path class="st37" d="M94.2,300c0,0,2.6,2.3,3.9,2.3c1.3,0,2-3.6,2-3.6l-1.2-2.3L94.2,300z"/>
			</g>
			<g>
				<path class="st37" d="M195.2,274.2c0,0,1.3-1.2,1.9-2.3c0.6-1.1,3.2,4.5,3.2,4.5s-3.2,0.1-4.6,1.1
					C194.2,278.6,195.2,274.2,195.2,274.2z"/>
			</g>
			<g>
				<path class="st38" d="M205.6,266.7c0,0-3.8,1.6-3.7,2.2c0.2,0.6,0.6,0.8,0.6,0.8l-1.3,1.4c0,0-0.3,1.4,1.3,1.3
					c0,0-0.4,1.3,1.1,1c0,0,0.1,1,0.8,1c0.7,0,3.2-1.1,3.2-1.1s0.4-0.5-0.2-1.3c0,0,0.5-0.9-0.2-1.6c0,0,0.3-0.8-0.4-1.6
					c0,0,0.5-1.7-0.9-2.3C206,266.6,205.7,266.6,205.6,266.7z"/>
			</g>
			<g>
				<path class="st37" d="M198.9,268.7c0,0,2.8,0.2,4.3,1c0.3,0.2,0.6,0.4,0.6,0.8c0,0.4-0.6,0.8-1.9,0.8c-1.2,0-2.8,0.5-2.8,0.5
					S197.9,271.4,198.9,268.7z"/>
			</g>
			<g>
				<path class="st44" d="M96.1,294.5c0,0-0.8,1.5-0.9,2c0,0.5-3.7-0.3-3.7-0.3S94.3,293.5,96.1,294.5z"/>
			</g>
			<g>
				<path class="st38" d="M95.3,288.8c0,0,2.2,3.5,1.7,3.9c-0.5,0.4-1,0.3-1,0.3l0.3,1.9c0,0-0.5,1.3-1.8,0.4c0,0-0.4,1.3-1.5,0.2
					c0,0-0.6,0.7-1.2,0.3c-0.6-0.4-2-2.7-2-2.7s-0.1-0.6,0.9-1c0,0,0.1-1,1.1-1.2c0,0,0.2-0.8,1.2-1c0,0,0.6-1.7,2-1.4
					C95,288.4,95.2,288.6,95.3,288.8z"/>
			</g>
			<g>
				<path class="st37" d="M99.5,294.2c0,0-2.5-1.4-4.1-1.6c-0.4,0-0.8,0-0.9,0.3c-0.2,0.3,0.1,1,1.1,1.7c1,0.7,2.1,2,2.1,2
					S98.9,297,99.5,294.2z"/>
			</g>
			<g>
				<g>
					<path class="st48" d="M145.1,447.5c-2,0.6-2.6,4-4.3,5c-1.7,1-9.9,1.7-10.2-0.9c-0.3-2.6,3.5-4.9,5.1-6.2
						c1.7-1.3,5.5-5.5,6.3-7.2c0,0,0.7,1.1,2.7,0.7c2-0.3,2.4-0.9,2.4-0.9c-0.1,2,0.6,3.4,0.8,4.2
						C148.6,444.9,147.1,446.9,145.1,447.5z"/>
				</g>
			</g>
			<g>
				<g>
					<path class="st48" d="M158.5,447.9c-1.5,1.4-1.8,3.6-3.5,4.6c-0.5,0.3-1.5,0.6-2.6,0.8c-2.1,0.4-4.7,0.4-6-0.3
						c-0.4-0.3-0.7-0.6-0.8-1.1c-0.3-2.6,3.5-5.5,5.2-6.8c1-0.8,2.1-2.6,3-4.3c0.5-1.1,1-2.1,1.3-2.7c0,0,0,0,0,0
						c0,0,0.1,0.2,0.3,0.4c0.3,0.2,1,0.5,2.2,0.3c1.6-0.3,2.2-0.7,2.4-0.9c0,0,0,0,0,0c0,0,0,0,0,0c0,0,0,0,0,0c0,0,0,0,0,0l0,0
						c0,0,0,0,0,0c0.3,1.6,0.9,3.3,1.1,4C161.9,444.6,160,446.6,158.5,447.9z"/>
				</g>
			</g>
			<g>
				<g>
					<path class="st52" d="M144,244.2c0,0,6.4-0.7,8.8,5.6c2.3,6.2,4.5,8.3,4.8,11.5c1.1,13.2,7.3,10.2,5.5,17.9
						c-1.7,7.6-2.9,8.8-2.9,8.8l-14.8-2.9l-15,0c0,0,5.9-2.9,4.5-9.1c-1.3-6.2-4.5-16.4-2.7-23.4C134.1,245.6,140.1,244.7,144,244.2
						z"/>
				</g>
			</g>
			<g>
				<g>
					<polygon class="st53" points="98.1,353.5 135.5,352.2 136.2,317.3 96.8,317.3 					"/>
				</g>
			</g>
			<g>
				<g>
					<polygon class="st50" points="251.3,311 236.3,273.6 241.5,313.8 245.8,311.3 					"/>
				</g>
			</g>
			<g>
				<g>
					<polygon class="st54" points="245.9,318.7 235.5,275.5 235,319.9 240.1,318 					"/>
				</g>
			</g>
			<g>
				<g>
					<path class="st37" d="M133.3,333c0,0-5.4,18.9-6.4,23.8c-0.9,4.8-3.6,28.2-3.9,32.2c-0.3,4,8.9,22.6,9.4,24
						c1.9,5.2,9.8,24.1,9.8,24.1s5.1,3,4.5-1.4c-1.7-13.5-2.5-16.8-3.8-23.8c-2.7-15.3-8.2-17.3-7.3-19.6
						c8.5-22.6,10.2-37.9,11.4-39.3c1.1-1.3,1.3,0.7,2,3.6c0.7,2.9-0.3,23.2,0.9,31c0.7,4.2,2.1,13.8,2.6,19.3
						c0.5,5.5,3,30.9,3,30.9s0.3,0.9,4.1-1.2c0.6-0.3,3.6-22.5,3.7-29c0.1-6.5-2.8-7.5-0.5-20.1c5-27.1,4.3-31.8-1.5-51.3
						C147.2,288.4,133.3,333,133.3,333z"/>
				</g>
			</g>
			<g>
				<g>
					<path class="st55" d="M199.6,277.5c-0.2-0.2-14,10.3-15.5,11.2c-3,1.7-6.2,1.6-9.5,1.8c-3.7,0.2-8-0.2-11.7,0.6
						c-1.9,0.4-2.1,0.9-3.1,2.9c-2.7,5.5-3.6,12.4-3.9,18.5c-0.4,6.3,2.1,10.7,4.6,16.3c0.9,1.9,2.1,3.9,0.4,5.6
						c-1.5,1.6-4.5,1.9-6.5,2.1c-4.9,0.6-12.4,1-17.1-0.9c-5.8-2.4-4.7-9.6-5.3-14.7c-0.4-3.4-2-8.5-3-11.7c-0.9-3.2-1-4.6-0.8-8
						c-1.8,5.1-3.3,13.8-8.1,17c-3.7,2.5-7.1-0.9-9.8-3.2c-5.1-4.4-10.2-8.9-15.3-13.3c1.1-1,2.2-2,3.3-3c0.4-0.3,0.4-0.4,0.8-0.7
						c1-0.8,0.8-1,1.8-0.4c0.7,0.4,2.4,2.1,3,2.6c1.8,1.7,3.5,2.8,5.3,4.5c1.6,1.5,4.4,5,6.8,3.7c1.9-0.9,2.4-4.8,3.1-6.5
						c1.8-4.8,3.6-9.6,5.8-14.2c2.3-5,7.4-7.6,12.4-9.6c4.3-1.7,10-1.4,14.4-0.3c3.1,0.8,4.1,0.8,7.2,1.7c2.9,0.8,5.6,1.8,8.6,2.4
						c3.4,0.7,6.9,1,10.4,1c2.8,0,3.9-0.4,6.2-2c3.1-2.2,7.7-5.9,11.1-7.6C197.2,272.2,197.9,275.8,199.6,277.5z"/>
				</g>
			</g>
			<g>
				<g>
					<path class="st37" d="M148.4,270.1c0,0-0.5,6.4,0.7,8.4c1.2,1.9-1.1,4.5-5.8,3.6c-4.7-0.9-4.5-3.6-4.5-3.6s1.3-4,0.9-7.2
						C139.4,268.2,148.4,270.1,148.4,270.1z"/>
				</g>
			</g>
			<g>
				<g>
					<path class="st37" d="M151.5,277.9c0,0-4.3,10-9.8,12.1c0,0-5.5-4.8-4-12C137.7,277.9,144.8,274.3,151.5,277.9z"/>
				</g>
			</g>
			<g>
				<g>
					<path class="st37" d="M144.8,247.8c0,0,8.5,1.2,7.3,13.8c-1.3,12.6-8.8,11.6-9.3,11.6c-0.5,0-7.6,0.3-8.2-15.1
						C134.7,258.2,134.4,246.8,144.8,247.8z"/>
				</g>
			</g>
			<g>
				<g>
					<path class="st52" d="M143.9,252.4c0,0,4,4.2,5.8,6.3c1.9,2.1,2.1,6.2,2.1,6.2s3.1-3.8,1.8-8.3c-1.3-4.4-4.4-13.1-12.2-10.4
						c-7.8,2.7-8.1,14.3-7.2,20.1C134.2,266.4,137.7,253.6,143.9,252.4z"/>
				</g>
			</g>
			<g>
				<path class="st56" d="M140.6,272.7c0,0,3.7,1.8,7.4-1.1c0,0-1.4,2.4-3.9,2.5C141.5,274.3,140.6,272.7,140.6,272.7z"/>
			</g>
			<g>
				<path class="st46" d="M117.1,307.3c-0.4,0.8-1.2,1.2-1.2,1.2c-3.9,2.1-4.6,7.1-4.7,8.8l-0.8,0
					C111.1,308.1,117.1,307.3,117.1,307.3z"/>
			</g>
			<g>
				<path class="st46" d="M116.9,307.3c0,0-6.3,0.3-8.1,9.9l0.6,0.1c0,0,1.2-7,6.3-8.9C115.7,308.3,116.4,308,116.9,307.3z"/>
			</g>
			<g>
				<path class="st55" d="M161.5,331.3c0,0,8.6,17.9,2.8,54.1c0,0-17.6-1.6-44-3.5c0,0,12-48.7,12.3-51.8
					C133,327,161.5,331.3,161.5,331.3z"/>
			</g>
			<g>
				<g>
					<path class="st37" d="M142.1,436.7c0,0,2.5,1.6,4.7-0.5l0.2,1.9c0,0-3.9,3.5-4.9-0.3V436.7z"/>
				</g>
			</g>
			<g>
				<g>
					<path class="st37" d="M156.2,436.4c0,0,1.5,1.3,3.7-0.7l0.3,2.2c0,0-3.8,3.9-4.8,0.1L156.2,436.4z"/>
				</g>
			</g>
			<g>
				<g>
					<path class="st48" d="M142.1,437.8c0,0-2,2.4-1.8,2.8c0.2,0.4,4.6,1.3,5.3,0.3c0.7-0.9,1.5-2.9,1.5-2.9
						S143.2,439.7,142.1,437.8z"/>
				</g>
			</g>
			<g>
				<g>
					<path class="st48" d="M155.5,437.7c0,0-1.9,2.7-1.7,3.1c0.2,0.4,4.1,1,4.8,0.1c0.7-0.9,1.6-2.9,1.6-2.9
						S156.6,439.7,155.5,437.7z"/>
				</g>
			</g>
			<g>
				<path class="st57" d="M132.4,327.5c0,0,10.4,3.8,25.3-4.6c0,0,0.6,1.2,1.3,2.9c0,0-13.6,8.4-26.3,4.3
					C132.7,330.1,132.3,328.1,132.4,327.5z"/>
			</g>
			<g>
				<path class="st50" d="M129.5,292.5c-1.2,3.1-1.3,8.7-1.3,8.7s-0.4,1.5-1,3.2C127,296.1,129.5,292.5,129.5,292.5z"/>
			</g>
			<g>
				<g>
					<path class="st58" d="M143.1,278.6c-0.5,0-1-0.1-1.5-0.1c-1.7-0.3-2.4-1.1-2.5-1.2l0.2-0.8c0,0,1,0.9,2.5,1.1
						c2,0.4,4.3-0.2,6.6-1.6l0.3,0.8C146.6,278.2,144.6,278.6,143.1,278.6z"/>
				</g>
			</g>
		</g>
		<g>
			<path class="st59" d="M169.6,144.1l-20,3.7c-1.1,0.2-2.2,0.8-2.9,1.7l-45.3,52.4c-1.8,2.1-1.6,5.4,0.5,7.2l19.1,16.5
				c2.1,1.8,5.4,1.6,7.2-0.5l45.3-52.4c0.8-0.9,1.2-2,1.2-3.1l0.8-20.3C175.8,146,172.9,143.5,169.6,144.1z M172.5,151
				c-1,1.1-2.7,1.3-3.9,0.3c-1.1-1-1.3-2.7-0.3-3.9s2.7-1.3,3.9-0.3C173.4,148.2,173.5,149.9,172.5,151z"/>
			<g>
				<path class="st60" d="M130.7,205.8c-0.7,0.8-1.4,1.4-2.3,1.9c-0.9,0.5-1.8,0.8-2.7,0.9l-0.7-2.9c0.1,0,0.4,0,0.7,0
					c0.3-0.1,0.7-0.2,1.1-0.3c0.4-0.2,0.8-0.4,1.2-0.6c0.4-0.3,0.8-0.6,1.2-1c0.5-0.6,0.8-1.2,0.8-1.7c0-0.5-0.2-0.9-0.6-1.3
					c-0.2-0.2-0.4-0.3-0.7-0.3c-0.2,0-0.5,0-0.8,0.2c-0.3,0.1-0.6,0.3-1,0.5c-0.3,0.2-0.7,0.4-1.1,0.7c-0.9,0.6-1.7,0.9-2.4,1
					c-0.7,0.1-1.4-0.1-2-0.7c-0.6-0.6-1.1-1.2-1.4-1.9s-0.4-1.4-0.4-2.1c0-0.7,0.2-1.5,0.5-2.2c0.3-0.7,0.7-1.4,1.3-2
					c0.6-0.7,1.3-1.3,2.1-1.6c0.7-0.4,1.4-0.6,2.1-0.7l0.6,2.8c-0.1,0-0.3,0-0.5,0c-0.3,0-0.5,0.1-0.9,0.3c-0.3,0.1-0.6,0.3-1,0.5
					c-0.3,0.2-0.6,0.5-0.9,0.8c-0.5,0.6-0.8,1.2-0.8,1.7c0,0.5,0.2,1,0.7,1.4c0.2,0.2,0.4,0.2,0.6,0.3c0.2,0,0.4,0,0.7-0.1
					c0.3-0.1,0.5-0.2,0.8-0.4c0.3-0.2,0.6-0.4,1-0.6c0.5-0.3,0.9-0.6,1.4-0.8c0.4-0.2,0.9-0.3,1.3-0.4c0.4-0.1,0.8,0,1.2,0.1
					c0.4,0.1,0.8,0.3,1.2,0.7c0.7,0.6,1.2,1.2,1.4,1.9c0.3,0.7,0.4,1.4,0.3,2.1c-0.1,0.7-0.3,1.4-0.6,2.1
					C131.7,204.6,131.2,205.3,130.7,205.8z"/>
				<path class="st60" d="M138.1,197.3c-0.4,0.5-0.8,0.8-1.3,1c-0.5,0.2-1,0.3-1.5,0.3c-0.5,0-1-0.1-1.6-0.4c-0.5-0.2-1-0.5-1.5-0.9
					c-0.7-0.6-1.2-1.3-1.6-2c-0.4-0.8-0.7-1.6-0.8-2.4c-0.1-0.8-0.1-1.6,0.1-2.4c0.2-0.8,0.5-1.5,1-2.1c0.5-0.6,1-0.9,1.7-1.1
					c0.6-0.1,1.2-0.1,1.8,0.2l-1.1-1.5l1.8-2.1l4.7,6.1c0.1,0.1,0.2,0.2,0.2,0.3c0.2,0.2,0.4,0.2,0.7-0.1l1.4,1.9
					c-0.1,0.2-0.2,0.4-0.3,0.6c-0.1,0.2-0.2,0.3-0.3,0.4c-0.3,0.4-0.6,0.6-1,0.7c-0.3,0.1-0.7,0-1-0.3c-0.1-0.1-0.3-0.3-0.5-0.6
					c0.2,0.8,0.2,1.6,0,2.4C138.9,196.1,138.6,196.8,138.1,197.3z M137.2,194.9c0.2-0.2,0.3-0.4,0.4-0.7c0.1-0.3,0.2-0.5,0.2-0.8
					c0-0.3,0-0.6,0-0.9c0-0.3-0.1-0.6-0.2-0.9l-1.6-2.1c-0.5-0.3-1-0.5-1.6-0.4c-0.6,0-1,0.3-1.3,0.7c-0.3,0.3-0.5,0.7-0.6,1.2
					c-0.1,0.5-0.1,0.9,0,1.4c0.1,0.5,0.2,0.9,0.5,1.4c0.2,0.4,0.5,0.8,0.9,1.2c0.5,0.5,1.1,0.7,1.7,0.7
					C136.2,195.6,136.7,195.4,137.2,194.9z"/>
				<path class="st60" d="M145.4,188.9c-0.5,0.5-0.9,0.8-1.4,0.9c-0.5,0.1-1-0.1-1.4-0.5c-0.1-0.1-0.2-0.2-0.3-0.3
					c-0.1-0.1-0.2-0.2-0.3-0.3l-7.7-10.2l1.8-2.1l7.1,9.4c0,0.1,0.1,0.1,0.1,0.2c0,0,0.1,0.1,0.1,0.1c0.4,0.4,0.8,0.3,1.2-0.1
					c0.1-0.1,0.2-0.3,0.3-0.4c0.1-0.2,0.2-0.4,0.2-0.6l1.5,1.4c-0.1,0.4-0.3,0.8-0.6,1.3C145.9,188.2,145.7,188.6,145.4,188.9z"/>
				<path class="st60" d="M151,182.5c-0.4,0.5-0.9,0.9-1.5,1.2c-0.5,0.3-1.1,0.4-1.6,0.4c-0.6,0-1.1-0.1-1.7-0.3
					c-0.5-0.2-1.1-0.5-1.6-1c-0.7-0.6-1.2-1.3-1.6-2.1c-0.4-0.8-0.6-1.6-0.7-2.5c-0.1-0.9,0-1.7,0.3-2.6c0.3-0.9,0.7-1.7,1.3-2.4
					c0.8-0.9,1.6-1.4,2.4-1.6c0.8-0.2,1.6,0,2.4,0.7c1.7,1.5,1.3,3.8-1.4,7c-0.2,0.2-0.3,0.4-0.5,0.6c-0.2,0.2-0.4,0.4-0.6,0.6
					l0.2,0.2c0.5,0.5,1.1,0.7,1.7,0.8c0.6,0,1.1-0.2,1.5-0.7c0.4-0.4,0.6-0.9,0.7-1.4c0.1-0.5,0.1-1.1-0.1-1.6l1.9-1.2
					c0.1,0.5,0.2,1,0.2,1.5c0,0.5-0.1,1.1-0.2,1.6c-0.1,0.5-0.3,1-0.5,1.5C151.6,181.6,151.3,182.1,151,182.5z M145.3,175
					c-0.3,0.3-0.4,0.6-0.6,1c-0.1,0.4-0.2,0.7-0.2,1.1c0,0.4,0.1,0.7,0.2,1.1c0.1,0.4,0.3,0.7,0.5,1.1c0.2-0.2,0.3-0.3,0.4-0.5
					c0.1-0.2,0.3-0.3,0.4-0.5c0.4-0.5,0.8-0.9,1-1.3c0.2-0.4,0.4-0.7,0.5-1c0.1-0.3,0.1-0.6,0-0.8c-0.1-0.2-0.2-0.4-0.4-0.6
					c-0.3-0.3-0.6-0.3-1-0.2C146,174.4,145.7,174.6,145.3,175z"/>
			</g>
		</g>
		<g>
			<g>
				<path class="st61" d="M172.3,147.5l-0.2-0.6c0,0,1.5-0.4,3.6-1.6l0.3,0.6C173.9,147.1,172.4,147.5,172.3,147.5z"/>
			</g>
			<g>
				<path class="st61" d="M416.6,200.6l-0.6-0.2c0.9-2.7,1.7-5.1,2.4-7.6l0.6,0.2C418.3,195.4,417.5,197.9,416.6,200.6z
					 M421.1,185.3l-0.6-0.2c0.7-2.7,1.3-5.3,1.7-7.7l0.7,0.1C422.4,180,421.8,182.6,421.1,185.3z M424.1,169.7l-0.7-0.1
					c0.3-2.7,0.5-5.4,0.6-7.9l0.7,0C424.6,164.2,424.5,166.9,424.1,169.7z M423.7,153.8c-0.3-2.7-0.8-5.3-1.5-7.7l0.6-0.2
					c0.7,2.5,1.2,5.1,1.5,7.9L423.7,153.8z M182.1,140.6l-0.5-0.4c1.6-2,2.8-4.4,3.5-6.9l0.6,0.2C185,136.1,183.8,138.6,182.1,140.6
					z M419.4,138.7c-1.2-2.3-2.7-4.5-4.3-6.5l0.5-0.4c1.7,2,3.2,4.3,4.4,6.7L419.4,138.7z M409.4,126.7c-2-1.6-4.2-3-6.6-4.2
					l0.3-0.6c2.4,1.3,4.7,2.7,6.7,4.3L409.4,126.7z M186.7,125.5l-0.7,0c0.1-2.4,0.3-5.2,0.7-8l0.7,0.1
					C187,120.4,186.8,123.2,186.7,125.5z M395.5,119.3c-2.4-0.8-4.9-1.6-7.6-2.2l0.2-0.6c2.7,0.6,5.3,1.4,7.7,2.2L395.5,119.3z
					 M380.1,115.6c-2.5-0.4-5.2-0.7-7.9-0.9l0.1-0.7c2.7,0.2,5.4,0.5,7.9,0.9L380.1,115.6z M364.3,114.1c-2.7-0.3-5.4-0.6-7.9-1
					l0.1-0.7c2.5,0.4,5.1,0.7,7.9,1L364.3,114.1z M348.6,111.6c-2.7-0.6-5.3-1.3-7.7-2.1l0.2-0.6c2.4,0.8,4.9,1.5,7.6,2.1
					L348.6,111.6z M188.8,109.8l-0.6-0.1c0.6-2.6,1.3-5.2,2.1-7.7l0.6,0.2C190.1,104.6,189.4,107.2,188.8,109.8z M333.5,106.6
					c-2.4-1.1-4.7-2.4-7-3.9l0.4-0.6c2.2,1.4,4.5,2.7,6.9,3.8L333.5,106.6z M320.1,98c-2.2-1.8-4.3-3.6-6-5.2l0.4-0.5
					c1.7,1.6,3.8,3.4,6,5.2L320.1,98z M193.8,94.8l-0.6-0.3c1.1-2.5,2.3-4.9,3.6-7.1l0.6,0.3C196.1,89.9,194.9,92.3,193.8,94.8z
					 M308.3,87.4c-2.2-2-4.2-3.6-6.1-5.1l0.4-0.5c1.9,1.5,3.9,3.1,6.1,5.1L308.3,87.4z M201.8,81.2l-0.5-0.4
					c1.7-2.1,3.5-4.1,5.4-5.9l0.5,0.5C205.3,77.1,203.5,79.1,201.8,81.2z M295.8,77.8c-2.2-1.4-4.5-2.7-6.9-3.9l0.3-0.6
					c2.4,1.2,4.7,2.5,6.9,4L295.8,77.8z M281.7,70.6c-2.4-1-4.9-1.9-7.4-2.7l0.2-0.6c2.6,0.8,5.1,1.8,7.5,2.7L281.7,70.6z
					 M213.3,70.4l-0.4-0.6c2.2-1.5,4.6-2.8,7-3.9l0.3,0.6C217.8,67.7,215.5,68.9,213.3,70.4z M266.7,65.7c-2-0.5-4.2-1-6.3-1.5
					c-0.5-0.1-0.9-0.2-1.4-0.3l0.1-0.7c0.5,0.1,0.9,0.2,1.4,0.3c2.2,0.5,4.3,1,6.4,1.5L266.7,65.7z M227.6,64l-0.2-0.6
					c2.5-0.7,5.1-1.2,7.8-1.5l0.1,0.7C232.7,62.8,230.1,63.3,227.6,64z M251.1,62.6c-2.7-0.3-5.4-0.5-7.9-0.5l0-0.7
					c2.6,0,5.3,0.2,8,0.5L251.1,62.6z"/>
			</g>
			<g>
				<path class="st61" d="M412.4,212.2l-0.6-0.2c0.4-1.2,0.9-2.5,1.4-3.7l0.6,0.2C413.3,209.8,412.8,211,412.4,212.2z"/>
			</g>
		</g>
		<g>
			<path class="st60" d="M575.3,213.4l21-12.1l20.1-13.2l2.2,4L598.1,204l-20.6,13.3L575.3,213.4z M587.9,195.9
				c-1.2-0.4-2.3-1-3.2-1.8c-0.9-0.8-1.6-1.7-2.1-2.7c-0.5-1-0.8-2.1-0.9-3.2c-0.1-1.1,0-2.3,0.4-3.4c0.4-1.1,1-2,1.8-2.9
				c0.8-0.8,1.7-1.4,2.7-1.9c1-0.4,2.1-0.7,3.3-0.7c1.2,0,2.4,0.1,3.6,0.6c1.2,0.4,2.3,1,3.2,1.8c0.9,0.8,1.6,1.7,2.2,2.7
				c0.5,1,0.8,2,0.9,3.2c0.1,1.1,0,2.3-0.4,3.3c-0.4,1.1-1,2.1-1.8,2.9c-0.8,0.8-1.7,1.4-2.7,1.9c-1,0.4-2.1,0.7-3.4,0.7
				C590.3,196.5,589.1,196.3,587.9,195.9z M589.1,192.4c0.5,0.2,1.1,0.2,1.6,0.1c0.5-0.1,1-0.3,1.5-0.6c0.5-0.3,0.9-0.7,1.3-1.1
				c0.4-0.5,0.7-1,0.9-1.6c0.4-1.2,0.4-2.4,0-3.5c-0.4-1.1-1.2-1.9-2.2-2.2c-0.5-0.2-1.1-0.2-1.6-0.1c-0.5,0.1-1,0.3-1.5,0.6
				c-0.5,0.3-0.9,0.6-1.3,1.1c-0.4,0.5-0.7,1-0.9,1.6c-0.4,1.2-0.4,2.4,0,3.6C587.4,191.3,588.1,192,589.1,192.4z M600.3,225.6
				c-1.2-0.4-2.3-1-3.2-1.8c-0.9-0.8-1.6-1.7-2.1-2.7c-0.5-1-0.8-2-1-3.2c-0.1-1.1,0-2.3,0.4-3.4c0.4-1.1,1-2.1,1.8-2.9
				c0.8-0.8,1.7-1.4,2.7-1.9c1-0.4,2.1-0.7,3.3-0.7c1.2,0,2.4,0.1,3.6,0.6c1.2,0.4,2.3,1,3.2,1.8c0.9,0.8,1.6,1.7,2.2,2.7
				c0.5,1,0.9,2.1,0.9,3.2c0.1,1.1-0.1,2.2-0.5,3.4c-0.4,1.1-1,2.1-1.8,2.9c-0.8,0.8-1.7,1.4-2.7,1.8c-1,0.4-2.2,0.7-3.4,0.7
				C602.7,226.2,601.5,226,600.3,225.6z M601.5,222.1c0.5,0.2,1.1,0.2,1.6,0.1c0.5-0.1,1-0.3,1.5-0.6c0.5-0.3,0.9-0.6,1.3-1.1
				c0.4-0.5,0.7-1,0.9-1.6c0.2-0.6,0.3-1.3,0.3-1.9c0-0.6-0.1-1.2-0.3-1.7c-0.2-0.5-0.5-1-0.9-1.4c-0.4-0.4-0.8-0.7-1.3-0.8
				c-0.5-0.2-1.1-0.2-1.6-0.1c-0.5,0.1-1,0.3-1.5,0.6c-0.5,0.3-0.9,0.7-1.3,1.1c-0.4,0.5-0.7,1-0.9,1.6c-0.4,1.2-0.4,2.4,0,3.5
				C599.8,221,600.5,221.7,601.5,222.1z"/>
		</g>
		<g>
			<path class="st60" d="M122.6,62.5c-0.7,0.5-1.5,0.8-2.3,1c-0.8,0.2-1.5,0.2-2.3,0.1c-0.7-0.1-1.4-0.4-2.1-0.8
				c-0.6-0.4-1.2-0.9-1.6-1.6c-0.4-0.6-0.7-1.3-0.8-2.1c-0.1-0.8-0.1-1.5,0.1-2.2c0.2-0.7,0.5-1.4,1-2.1c0.5-0.7,1-1.2,1.8-1.7
				c0.7-0.5,1.5-0.8,2.2-0.9c0.8-0.2,1.6-0.2,2.3-0.1c0.7,0.1,1.4,0.4,2.1,0.8c0.7,0.4,1.2,0.9,1.6,1.6c0.4,0.7,0.7,1.4,0.8,2.1
				c0.1,0.7,0.1,1.5-0.1,2.2c-0.2,0.7-0.5,1.4-1,2.1C123.9,61.5,123.3,62.1,122.6,62.5z M121.2,60.5c0.3-0.2,0.5-0.5,0.7-0.8
				c0.2-0.3,0.3-0.7,0.3-1c0-0.4,0-0.8-0.1-1.2c-0.1-0.4-0.3-0.8-0.5-1.1c-0.5-0.7-1.1-1.2-1.9-1.4c-0.8-0.2-1.5-0.1-2.1,0.3
				c-0.3,0.2-0.5,0.5-0.7,0.8c-0.2,0.3-0.3,0.7-0.3,1c0,0.4,0,0.8,0.1,1.1c0.1,0.4,0.3,0.8,0.5,1.1c0.5,0.7,1.1,1.2,1.9,1.4
				C120,60.9,120.6,60.9,121.2,60.5z M126.8,76.2l2-16l1.1-15.9l3,0.4L131,60.4l-1.2,16.3L126.8,76.2z M143.3,67.9
				c-0.7,0.5-1.5,0.8-2.3,1c-0.8,0.2-1.5,0.2-2.3,0.1c-0.7-0.1-1.4-0.4-2.1-0.8c-0.6-0.4-1.2-0.9-1.6-1.6c-0.4-0.7-0.7-1.4-0.8-2.1
				c-0.1-0.7-0.1-1.5,0.1-2.2c0.2-0.7,0.5-1.4,0.9-2.1c0.5-0.7,1-1.2,1.8-1.7c0.7-0.5,1.5-0.8,2.3-1c0.8-0.2,1.5-0.2,2.3-0.1
				c0.7,0.1,1.4,0.4,2.1,0.8c0.6,0.4,1.2,0.9,1.6,1.6c0.4,0.7,0.7,1.4,0.8,2.1c0.1,0.7,0.1,1.5-0.1,2.2s-0.5,1.4-1,2.1
				C144.7,66.8,144.1,67.4,143.3,67.9z M142,65.8c0.3-0.2,0.5-0.5,0.7-0.8c0.2-0.3,0.3-0.7,0.3-1c0-0.4,0-0.8-0.1-1.1
				c-0.1-0.4-0.3-0.8-0.5-1.1c-0.2-0.4-0.5-0.7-0.9-0.9c-0.3-0.2-0.7-0.4-1-0.5c-0.4-0.1-0.7-0.1-1.1-0.1c-0.4,0-0.7,0.2-1,0.4
				c-0.3,0.2-0.5,0.5-0.7,0.8c-0.2,0.3-0.3,0.7-0.3,1c0,0.4,0,0.8,0.1,1.2c0.1,0.4,0.3,0.8,0.5,1.1c0.5,0.7,1.1,1.2,1.9,1.4
				C140.7,66.3,141.4,66.2,142,65.8z"/>
		</g>
	</g>
</g>
<g>
	<g>
		<path class="st62" d="M260.2,326.4c-0.5-0.2-0.8-0.5-1.1-1l0.8-0.8c0.2,0.3,0.5,0.5,0.8,0.7c0.3,0.2,0.7,0.3,1.1,0.3
			c0.6,0,1.1-0.2,1.4-0.6s0.5-0.9,0.5-1.7v-8.6h1.1v8.6c0,0.7-0.1,1.3-0.4,1.8c-0.2,0.5-0.6,0.9-1.1,1.1c-0.5,0.3-1,0.4-1.7,0.4
			C261.2,326.7,260.7,326.6,260.2,326.4z"/>
		<path class="st62" d="M268.1,323.8c0,0.6,0.1,1,0.4,1.3c0.3,0.3,0.7,0.5,1.3,0.5c0.6,0,1-0.1,1.3-0.4c0.3-0.3,0.4-0.7,0.4-1.3
			l0.1,1.4c-0.2,0.4-0.5,0.8-0.8,1c-0.4,0.2-0.9,0.4-1.4,0.4c-0.8,0-1.4-0.3-1.8-0.8c-0.4-0.5-0.6-1.2-0.6-2.1v-5.7h1.1V323.8z
			 M271.6,318.1h1.1v8.5h-1.1V318.1z"/>
		<path class="st62" d="M274.8,318.1h1.1v8.5h-1.1V318.1z M279.2,321c0-0.6-0.1-1.1-0.4-1.4c-0.3-0.3-0.7-0.5-1.2-0.5
			c-0.5,0-1,0.2-1.3,0.5s-0.4,0.8-0.4,1.4l-0.2-1.4c0.2-0.5,0.5-1,0.9-1.2c0.4-0.3,0.8-0.4,1.4-0.4c0.5,0,0.9,0.1,1.2,0.4
			c0.3,0.2,0.6,0.6,0.8,1c0.2,0.5,0.3,1,0.3,1.7v5.6h-1.1V321z M283.6,321c0-0.6-0.1-1.1-0.4-1.4c-0.3-0.3-0.7-0.5-1.3-0.5
			c-0.5,0-0.9,0.2-1.2,0.5c-0.3,0.3-0.4,0.8-0.4,1.5l-0.4-1.1c0.2-0.6,0.5-1.1,0.9-1.5c0.4-0.3,0.9-0.5,1.4-0.5c0.5,0,1,0.1,1.4,0.3
			c0.4,0.2,0.6,0.6,0.8,1s0.3,1,0.3,1.7v5.6h-1.1V321z"/>
		<path class="st62" d="M287.8,326.4c-0.4-0.2-0.6-0.6-0.8-1c-0.2-0.4-0.3-1-0.3-1.6V321c0-0.6,0.1-1.2,0.3-1.6
			c0.2-0.5,0.5-0.8,0.8-1c0.4-0.2,0.8-0.4,1.3-0.4c0.5,0,1,0.1,1.4,0.4s0.7,0.6,1,1.1l-0.2,1.4c0-0.4-0.1-0.7-0.2-1
			c-0.1-0.3-0.3-0.5-0.6-0.7c-0.3-0.2-0.6-0.3-0.9-0.3c-0.6,0-1,0.2-1.3,0.5s-0.5,0.9-0.5,1.5v2.7c0,0.6,0.2,1.1,0.5,1.4
			s0.7,0.5,1.3,0.5c0.4,0,0.7-0.1,0.9-0.3c0.3-0.2,0.5-0.4,0.6-0.7s0.2-0.6,0.2-1l0.1,1.5c-0.2,0.5-0.5,0.9-0.8,1.1
			c-0.4,0.2-0.9,0.4-1.4,0.4C288.6,326.7,288.2,326.6,287.8,326.4z M288.3,330c0,0-0.2-0.2-0.7-0.5c-0.5-0.4-0.7-0.8-0.8-1.5l1-0.3
			c0.1,0.4,0.3,0.7,0.5,0.9s0.6,0.3,1,0.3c0.6,0,1.1-0.2,1.4-0.5s0.5-0.8,0.5-1.4v-8.9h1.1v8.9c0,0.6-0.1,1.2-0.4,1.6s-0.6,0.8-1,1
			c-0.5,0.2-1,0.4-1.6,0.4C288.7,330,288.3,330,288.3,330z"/>
		<path class="st62" d="M294.9,326.1c-0.4-0.4-0.7-1-0.7-1.9c0-0.9,0.2-1.5,0.7-2s1.1-0.7,2-0.7h2.1l0.1,1h-2.2
			c-0.5,0-0.9,0.1-1.2,0.4s-0.4,0.7-0.4,1.3c0,0.5,0.1,0.9,0.4,1.1s0.7,0.4,1.3,0.4c0.6,0,1.1-0.1,1.4-0.3c0.3-0.2,0.5-0.5,0.5-0.9
			l0.2,0.9c-0.1,0.3-0.2,0.5-0.4,0.7c-0.2,0.2-0.5,0.3-0.8,0.4c-0.3,0.1-0.7,0.2-1.1,0.2C296,326.7,295.4,326.5,294.9,326.1z
			 M298.9,320.8c0-0.6-0.2-1-0.5-1.3c-0.3-0.3-0.7-0.5-1.3-0.5c-0.4,0-0.7,0.1-1,0.3c-0.3,0.2-0.5,0.5-0.7,0.8l-1-0.3
			c0.2-0.6,0.5-1,0.9-1.3c0.5-0.3,1-0.5,1.7-0.5c0.6,0,1.1,0.1,1.5,0.3c0.4,0.2,0.7,0.5,1,1c0.2,0.4,0.3,0.9,0.3,1.5v5.8h-1.1V320.8
			z"/>
		<path class="st62" d="M305.8,325.3h1.3v1.3h-1.3V325.3z"/>
		<path class="st62" d="M309,325.3h1.3v1.3H309V325.3z"/>
		<path class="st62" d="M312.2,325.3h1.3v1.3h-1.3V325.3z"/>
		<path class="st62" d="M320.9,326.3c-0.5-0.3-0.9-0.7-1.2-1.3c-0.3-0.5-0.4-1.2-0.4-2v-4.7c0-0.8,0.1-1.4,0.4-2
			c0.3-0.5,0.7-1,1.2-1.3c0.5-0.3,1.1-0.4,1.9-0.4c0.7,0,1.4,0.1,1.9,0.4s0.9,0.7,1.2,1.3c0.3,0.5,0.4,1.2,0.4,2v4.7
			c0,0.8-0.1,1.4-0.4,2c-0.3,0.5-0.7,1-1.2,1.3c-0.5,0.3-1.1,0.4-1.9,0.4C322,326.7,321.4,326.6,320.9,326.3z M324,325.3
			c0.3-0.2,0.6-0.5,0.8-0.9s0.3-0.8,0.3-1.3v-4.9c0-0.5-0.1-1-0.3-1.3c-0.2-0.4-0.4-0.7-0.8-0.9c-0.3-0.2-0.8-0.3-1.2-0.3
			c-0.5,0-0.9,0.1-1.2,0.3c-0.3,0.2-0.6,0.5-0.8,0.9c-0.2,0.4-0.3,0.8-0.3,1.3v4.9c0,0.5,0.1,1,0.3,1.3c0.2,0.4,0.4,0.7,0.8,0.9
			c0.3,0.2,0.8,0.3,1.2,0.3C323.3,325.6,323.7,325.5,324,325.3z M322.8,323.8l0.7-0.8l3.7,3l-0.7,0.8L322.8,323.8z"/>
		<path class="st62" d="M329.6,323.8c0,0.6,0.1,1,0.4,1.3c0.3,0.3,0.7,0.5,1.3,0.5c0.6,0,1-0.1,1.3-0.4c0.3-0.3,0.4-0.7,0.4-1.3
			l0.1,1.4c-0.2,0.4-0.5,0.8-0.8,1c-0.4,0.2-0.9,0.4-1.4,0.4c-0.8,0-1.4-0.3-1.8-0.8c-0.4-0.5-0.6-1.2-0.6-2.1v-5.7h1.1V323.8z
			 M333,318.1h1.1v8.5H333V318.1z"/>
		<path class="st62" d="M336.7,326.1c-0.4-0.4-0.7-1-0.7-1.9c0-0.9,0.2-1.5,0.7-2s1.1-0.7,2-0.7h2.1l0.1,1h-2.2
			c-0.5,0-0.9,0.1-1.2,0.4s-0.4,0.7-0.4,1.3c0,0.5,0.1,0.9,0.4,1.1s0.7,0.4,1.3,0.4c0.6,0,1.1-0.1,1.4-0.3c0.3-0.2,0.5-0.5,0.5-0.9
			l0.2,0.9c-0.1,0.3-0.2,0.5-0.4,0.7c-0.2,0.2-0.5,0.3-0.8,0.4c-0.3,0.1-0.7,0.2-1.1,0.2C337.7,326.7,337.1,326.5,336.7,326.1z
			 M340.7,320.8c0-0.6-0.2-1-0.5-1.3c-0.3-0.3-0.7-0.5-1.3-0.5c-0.4,0-0.7,0.1-1,0.3c-0.3,0.2-0.5,0.5-0.7,0.8l-1-0.3
			c0.2-0.6,0.5-1,0.9-1.3c0.5-0.3,1-0.5,1.7-0.5c0.6,0,1.1,0.1,1.5,0.3c0.4,0.2,0.7,0.5,1,1c0.2,0.4,0.3,0.9,0.3,1.5v5.8h-1.1V320.8
			z"/>
		<path class="st62" d="M345,324.4c0,0.4,0.1,0.6,0.2,0.8c0.2,0.2,0.4,0.3,0.7,0.3h0.6v1.1h-0.8c-0.6,0-1.1-0.2-1.4-0.6
			c-0.3-0.4-0.5-0.9-0.5-1.7v-9.6h1.1V324.4z"/>
		<path class="st62" d="M348.3,315h1.1v1.2h-1.1V315z M348.3,318.1h1.1v8.5h-1.1V318.1z"/>
		<path class="st62" d="M351.1,318.1h3.6v1.1h-3.6V318.1z M352.4,326.1c-0.3-0.4-0.5-0.9-0.5-1.7v-8.7h1.1v8.7
			c0,0.4,0.1,0.6,0.2,0.8c0.2,0.2,0.4,0.3,0.7,0.3h0.7v1.1h-0.9C353.2,326.6,352.7,326.4,352.4,326.1z"/>
		<path class="st62" d="M355.8,318.1h1.2l2.3,7.5l-0.5,1.5L355.8,318.1z M362.3,318.1l-3.1,10.4c-0.1,0.4-0.3,0.7-0.5,0.9
			c-0.2,0.2-0.5,0.4-0.8,0.5c-0.3,0.1-0.7,0.2-1.1,0.2h-0.2V329h0.2c0.4,0,0.8-0.1,1-0.3c0.2-0.2,0.4-0.5,0.6-1l2.7-9.6H362.3z"/>
		<path class="st62" d="M367.3,314.7h1.1v11.9h-1.1V314.7z M368.1,314.7h5.3v1.1h-5.3V314.7z M368.1,320.3h4.7v1.1h-4.7V320.3z"/>
		<path class="st62" d="M376,326.4c-0.4-0.2-0.8-0.6-1-1.1c-0.2-0.5-0.3-1-0.3-1.7V321c0-0.6,0.1-1.2,0.3-1.6s0.6-0.8,1-1
			s0.9-0.4,1.6-0.4c0.6,0,1.1,0.1,1.5,0.4s0.8,0.6,1,1s0.3,1,0.3,1.6v2.6c0,0.6-0.1,1.2-0.3,1.6c-0.2,0.5-0.6,0.8-1,1
			s-0.9,0.4-1.5,0.4C376.9,326.7,376.4,326.6,376,326.4z M378.8,325.1c0.3-0.3,0.5-0.8,0.5-1.4V321c0-0.6-0.2-1.1-0.5-1.4
			s-0.7-0.5-1.3-0.5c-0.6,0-1,0.2-1.3,0.5s-0.5,0.8-0.5,1.4v2.7c0,0.6,0.2,1.1,0.5,1.4s0.7,0.5,1.3,0.5
			C378.1,325.6,378.5,325.4,378.8,325.1z"/>
		<path class="st62" d="M382.3,318.1h1.1v8.5h-1.1V318.1z M386.3,319.1c-0.1,0-0.3-0.1-0.5-0.1c-0.7,0-1.3,0.2-1.7,0.6
			c-0.4,0.4-0.6,0.9-0.7,1.6l-0.2-1.6c0.3-0.5,0.7-0.9,1.2-1.2c0.5-0.3,1-0.4,1.6-0.4c0.2,0,0.4,0,0.5,0.1c0.2,0.1,0.3,0.1,0.4,0.2
			l-0.4,1C386.6,319.3,386.4,319.2,386.3,319.1z"/>
		<path class="st62" d="M394.8,314.7h1.4l3.5,11.9h-1.3l-2.9-10.6l-2.9,10.6h-1.3L394.8,314.7z M393.1,322.6h5v1.1h-5V322.6z"/>
		<path class="st62" d="M402.1,324.4c0,0.4,0.1,0.6,0.2,0.8c0.2,0.2,0.4,0.3,0.7,0.3h0.7v1.1h-0.8c-0.6,0-1.1-0.2-1.4-0.6
			c-0.3-0.4-0.5-0.9-0.5-1.7v-9.6h1.1V324.4z"/>
		<path class="st62" d="M406.4,324.4c0,0.4,0.1,0.6,0.2,0.8c0.2,0.2,0.4,0.3,0.7,0.3h0.7v1.1h-0.8c-0.6,0-1.1-0.2-1.4-0.6
			c-0.3-0.4-0.5-0.9-0.5-1.7v-9.6h1.1V324.4z"/>
	</g>
</g>
</svg>
